<?xml version="1.0" encoding="UTF-8" standalone="no"?>
<!-- Generator: Adobe Illustrator 24.1.1, SVG Export Plug-In . SVG Version: 6.00 Build 0)  -->

<svg
   xmlns:dc="http://purl.org/dc/elements/1.1/"
   xmlns:cc="http://creativecommons.org/ns#"
   xmlns:rdf="http://www.w3.org/1999/02/22-rdf-syntax-ns#"
   xmlns:svg="http://www.w3.org/2000/svg"
   xmlns="http://www.w3.org/2000/svg"
   xmlns:sodipodi="http://sodipodi.sourceforge.net/DTD/sodipodi-0.dtd"
   xmlns:inkscape="http://www.inkscape.org/namespaces/inkscape"
   version="1.1"
   id="Layer_1"
   x="0px"
   y="0px"
   viewBox="0 0 666.36865 145.28587"
   xml:space="preserve"
   sodipodi:docname="logo.svg"
   width="666.36865"
   height="145.28587"
   inkscape:version="0.92.5 (2060ec1f9f, 2020-04-08)"><metadata
   id="metadata31"><rdf:RDF><cc:Work
       rdf:about=""><dc:format>image/svg+xml</dc:format><dc:type
         rdf:resource="http://purl.org/dc/dcmitype/StillImage" /><dc:title></dc:title></cc:Work></rdf:RDF></metadata><defs
   id="defs29" /><sodipodi:namedview
   pagecolor="#ffffff"
   bordercolor="#666666"
   borderopacity="1"
   objecttolerance="10"
   gridtolerance="10"
   guidetolerance="10"
   inkscape:pageopacity="0"
   inkscape:pageshadow="2"
   inkscape:window-width="1528"
   inkscape:window-height="850"
   id="namedview27"
   showgrid="false"
   fit-margin-top="0"
   fit-margin-left="0"
   fit-margin-right="0"
   fit-margin-bottom="0"
   inkscape:zoom="0.67999715"
   inkscape:cx="506.45692"
   inkscape:cy="20.50768"
   inkscape:window-x="72"
   inkscape:window-y="27"
   inkscape:window-maximized="1"
   inkscape:current-layer="Layer_1" />
<g
   id="g24"
   transform="translate(-166.83015,-327.35412)">
	<g
   id="g8">
		<path
   d="m 213.14,329.6 c -4.51,-1.64 -7.25,-2.05 -12.03,-2.19 -10.66,-0.55 -19.41,3.01 -25.43,8.48 -3.42,3.01 -6.02,6.7 -7.38,10.53 -1.5,3.97 -1.91,7.93 -0.96,11.62 1.09,4.24 3.83,8.07 8.48,10.8 1.64,0.96 3.01,1.09 3.96,0.68 0.55,-0.27 1.09,-0.68 1.37,-1.23 0.27,-0.41 0.41,-1.09 0.41,-1.64 -0.14,-1.09 -0.82,-2.46 -2.32,-3.42 -0.82,-0.55 -1.78,-0.96 -2.87,-1.37 -2.19,-0.82 -4.78,-1.78 -5.74,-5.2 -0.55,-2.87 -0.14,-6.02 0.96,-9.02 1.23,-3.15 3.42,-6.43 6.43,-9.02 5.47,-4.92 13.26,-8.2 22.83,-7.66 3.14,0.14 5.88,0.55 8.34,1.23 3.14,1.09 5.33,3.28 6.97,5.88 2.19,3.42 3.01,7.93 3.14,12.85 0,4.92 -0.96,10.25 -2.6,15.18 -2.87,8.61 -7.79,16.13 -13.53,18.73 -2.32,0.68 -4.92,1.09 -7.66,1.23 0,-0.96 0.14,-2.05 0.14,-3.14 0.41,-15.59 1.78,-32.13 3.42,-39.78 0.55,-2.46 -0.68,-4.24 -2.32,-5.33 -0.82,-0.41 -1.78,-0.68 -2.6,-0.82 -1.09,-0.14 -2.05,0 -2.87,0.41 -1.37,0.55 -2.32,1.78 -2.32,3.69 -1.91,7.93 -3.14,19.41 -3.96,30.9 -1.09,15.59 -1.23,31.17 -0.55,37.46 l 0.14,0.96 c 0.27,2.87 0.55,4.92 1.78,6.56 0.55,0.96 3.01,2.46 5.06,2.87 0.82,0.14 1.64,0.14 2.32,0 3.01,-0.68 3.01,-3.14 2.32,-5.47 -0.55,-5.2 -0.82,-14.36 -0.55,-24.61 2.32,-0.14 4.51,-0.55 6.7,-0.96 l 0.14,0.14 c 0.68,-0.27 1.37,-0.41 1.91,-0.68 10.25,-3.14 18.05,-10.53 22.28,-19.14 2.19,-4.24 3.42,-8.75 3.69,-13.12 0.27,-4.51 -0.27,-8.89 -2.05,-12.85 -2.61,-5.89 -7.39,-10.81 -15.05,-13.55 z"
   id="path2"
   inkscape:connector-curvature="0" />
		<path
   d="m 702.08,343.14 c -2.6,-5.88 -7.38,-10.8 -15.04,-13.54 -4.51,-1.64 -7.25,-2.05 -12.03,-2.19 -10.66,-0.55 -19.41,3.01 -25.43,8.48 -3.42,3.01 -6.02,6.7 -7.38,10.53 -1.5,3.97 -1.91,7.93 -0.96,11.62 1.09,4.24 3.83,8.07 8.48,10.8 1.64,0.96 3.01,1.09 3.96,0.68 0.55,-0.27 1.09,-0.68 1.37,-1.23 0.27,-0.41 0.41,-1.09 0.41,-1.64 -0.14,-1.09 -0.82,-2.46 -2.32,-3.42 -0.82,-0.55 -1.78,-0.96 -2.87,-1.37 -2.19,-0.82 -4.79,-1.78 -5.74,-5.2 -0.55,-2.87 -0.14,-6.02 0.96,-9.02 1.23,-3.15 3.42,-6.43 6.43,-9.02 5.47,-4.92 13.26,-8.2 22.83,-7.66 3.15,0.14 5.88,0.55 8.34,1.23 3.14,1.09 5.33,3.28 6.97,5.88 2.19,3.42 3.01,7.93 3.14,12.85 0,4.92 -0.96,10.25 -2.6,15.18 -2.87,8.61 -7.79,16.13 -13.54,18.73 -2.32,0.68 -4.92,1.09 -7.66,1.23 0,-0.96 0.14,-2.05 0.14,-3.14 0.41,-15.59 1.78,-32.13 3.42,-39.78 0.55,-2.46 -0.68,-4.24 -2.32,-5.33 -0.82,-0.41 -1.78,-0.68 -2.6,-0.82 -1.09,-0.14 -2.05,0 -2.87,0.41 -1.37,0.55 -2.32,1.78 -2.32,3.69 -1.91,7.93 -3.14,19.41 -3.96,30.9 -1,14.29 -1.2,35.5 -0.7,43.78 -21.2,14.02 -59.24,4.48 -69.35,-3.04 9.84,-7.93 18.73,-17.5 25.84,-27.34 6.02,-8.48 10.66,-17.09 13.26,-24.75 2.6,-8.07 3.01,-15.18 0.55,-20.37 -0.96,-2.05 -2.46,-3.83 -4.37,-5.33 -2.73,-1.91 -5.61,-2.87 -8.75,-3.15 -4.24,-0.27 -8.61,1.09 -12.71,3.56 -3.97,2.46 -7.66,5.88 -10.53,9.98 -2.05,2.73 -3.69,5.88 -4.92,9.16 -1.09,-3.42 -3.01,-6.56 -5.06,-9.43 -2.87,-3.83 -6.29,-6.97 -9.84,-9.16 -3.69,-2.32 -7.66,-3.55 -11.21,-3.28 -2.46,0.14 -4.65,0.96 -6.56,2.46 -5.2,3.83 -7.38,9.98 -6.97,17.5 0.14,6.02 2.05,12.72 5.06,19.82 3.01,6.97 7.25,14.08 12.31,20.92 5.33,7.11 11.48,13.67 18.18,19.28 -4.79,3.55 -9.71,6.56 -14.63,8.89 -16.82,7.93 -32.4,6.15 -46.07,4.38 l -3.97,-0.41 c 3.01,-12.72 3.42,-26.8 3.83,-38.56 0.27,-7.11 0.55,-13.26 1.23,-17.77 0.27,-2.32 -1.23,-4.24 -3.14,-5.2 -0.68,-0.41 -1.5,-0.68 -2.32,-0.82 -0.82,-0.14 -1.64,-0.14 -2.32,0 -2.05,0.27 -3.83,1.5 -4.24,3.69 -1.09,5.74 -1.37,13.67 -1.5,22.15 l -1.23,3.97 c -2.6,8.07 -5.2,16.68 -8.61,19.82 -1.37,1.23 -1.91,1.5 -3.28,0.14 -1.23,-1.37 -2.19,-3.96 -2.87,-7.38 -1.09,-5.2 -1.23,-11.89 -0.82,-18.59 0.27,-6.01 1.09,-12.03 2.19,-16.82 0.55,-2.46 -0.96,-4.51 -3.14,-5.61 -0.68,-0.41 -1.5,-0.68 -2.32,-0.96 -0.82,-0.14 -1.64,-0.14 -2.46,-0.14 -2.05,0.27 -3.69,1.5 -4.24,4.1 -1.37,6.15 -2.19,13.13 -2.19,19.96 0,1 0.02,1.98 0.06,2.96 -1.37,4.1 -3.53,10.25 -6.21,15.22 -2.74,4.92 -5.74,8.61 -8.61,7.93 -2.32,-0.41 -3.55,-6.15 -3.96,-14.36 -0.27,-4.79 -0.14,-10.39 0.27,-16.13 3.01,-3.69 9.57,-14.49 14.36,-25.29 2.6,-5.88 4.78,-11.89 5.6,-16.82 0.96,-5.47 0.27,-9.84 -3.01,-11.89 -0.55,-0.55 -1.37,-0.82 -2.05,-0.96 -6.43,-1.78 -12.3,4.79 -16.68,15.31 -3.14,7.25 -5.6,16.68 -7.11,26.11 -1.23,7.11 -1.78,14.36 -1.5,20.92 -1.37,4.24 -3.42,10.12 -5.88,15.04 -2.19,4.65 -4.51,8.34 -6.29,8.07 -3.42,-0.82 -4.92,-9.43 -5.33,-20.51 -0.55,-15.04 1.09,-34.45 2.46,-46.35 9.16,2.32 17.23,2.46 21.47,-5.88 0.96,-1.64 0.82,-3.14 0.14,-4.24 -0.27,-0.41 -0.68,-0.82 -1.09,-1.09 -0.55,-0.27 -1.09,-0.41 -1.64,-0.27 -1.23,0 -2.32,0.68 -3.14,2.32 -1.09,2.05 -4.1,7.93 -10.25,6.43 v 0.14 c -1.64,-0.27 -3.28,-0.55 -5.06,-0.96 l 0.96,-6.84 c 0.41,-2.73 -0.96,-4.65 -3.01,-5.6 -0.68,-0.41 -1.64,-0.68 -2.46,-0.82 -0.96,-0.14 -1.78,0 -2.6,0.27 -1.5,0.55 -2.6,1.78 -2.6,3.55 -0.27,1.64 -0.68,3.69 -0.96,6.15 -12.58,-3.83 -25.16,-7.24 -32.13,3.69 -1.23,1.91 -1.37,3.69 -0.82,4.92 0.27,0.68 0.82,1.23 1.37,1.5 0.68,0.41 1.5,0.41 2.19,0.14 1.23,-0.27 2.46,-1.37 3.14,-3.56 0.55,-1.78 1.37,-3.55 2.6,-4.79 0.68,-0.82 1.5,-1.37 2.6,-1.64 5.88,-1.09 13.26,1.09 20.51,3.42 -1.23,10.25 -2.6,25.02 -2.19,38.55 0.04,2.77 0.19,5.46 0.41,8.07 -2.73,8.06 -6.29,14.62 -10.52,18.86 -3.42,3.28 -7.11,5.06 -11.07,4.38 -2.87,-0.55 -4.65,-4.79 -5.47,-10.53 -0.68,-4.38 -0.68,-9.43 -0.27,-14.49 0.55,-4.92 1.5,-9.84 2.87,-13.81 1.64,-4.38 3.55,-7.52 5.61,-7.52 0.82,0.14 1.64,0.27 2.19,0.55 1.64,0.55 2.87,1.78 3.55,3.42 0.14,0.27 0.27,0.55 0.27,0.82 0.96,3.01 -0.82,5.06 -2.32,6.7 -0.55,0.68 -0.96,1.09 -1.23,1.64 -1.23,1.78 -1.23,3.55 -0.82,4.78 0.27,0.82 0.68,1.37 1.37,1.78 0.68,0.41 1.5,0.41 2.46,0.14 1.09,-0.55 2.32,-1.78 3.42,-4.65 0.68,-1.64 1.09,-3.42 1.23,-5.33 0.14,-2.05 0,-4.1 -0.68,-6.02 l -0.41,-1.37 c -1.09,-2.32 -2.87,-4.24 -5.47,-5.33 -0.96,-0.27 -2.19,-0.55 -3.42,-0.68 -6.43,-0.55 -11.76,3.69 -15.18,9.98 -1.91,3.55 -3.28,7.79 -3.97,12.17 -0.24,1.52 -0.36,3.06 -0.43,4.59 -2.73,8.17 -6.14,14.84 -10.09,18.92 -3.01,3.28 -6.43,4.92 -10.12,4.38 -2.87,-0.68 -4.65,-4.92 -5.47,-10.66 -0.27,-1.78 -0.55,-3.55 -0.55,-5.61 6.56,-2.6 11.21,-8.89 13.67,-15.18 1.09,-2.87 1.64,-5.88 1.78,-8.48 0,-2.87 -0.41,-5.33 -1.64,-7.11 -1.09,-1.78 -2.73,-2.87 -4.92,-3.01 -6.56,-0.55 -11.76,3.69 -15.18,9.98 -2.05,3.55 -3.28,7.79 -3.96,12.17 -0.25,1.58 -0.42,3.17 -0.5,4.77 -1.65,4.68 -4.5,8.95 -9.06,11.23 -4.51,2.32 -10.66,2.87 -18.87,0.27 v -0.14 c 0.14,-3.83 0.55,-7.79 0.96,-11.62 3.97,-3.97 8.07,-8.89 11.62,-14.08 4.79,-6.84 8.75,-14.08 10.8,-20.37 2.19,-6.7 2.32,-12.58 -0.96,-15.86 -0.27,-0.41 -0.68,-0.82 -1.09,-1.09 -1.5,-0.96 -2.87,-1.5 -4.24,-1.78 -2.6,-0.55 -5.06,0 -7.52,1.5 -2.19,1.37 -4.24,3.55 -6.15,6.29 -4.79,6.84 -8.75,17.91 -11.35,30.63 -0.98,5.03 -1.76,10.15 -2.32,15.26 l -0.27,1.01 c -2.46,7.52 -6.7,20.92 -12.72,21.74 -2.19,0.27 -3.28,-1.5 -3.69,-4.51 -1.23,-9.02 3.69,-26.66 6.15,-35.68 1.5,-5.19 0.27,-7.11 -5.88,-8.2 -5.06,-0.82 -11.07,-1.78 -15.45,-3.83 0,-2.46 0,-4.65 -0.27,-6.42 -0.55,-2.6 -2.05,-4.24 -3.69,-4.79 -0.82,-0.27 -1.78,-0.27 -2.6,0 -0.68,0.14 -1.5,0.68 -2.05,1.37 -1.09,1.23 -1.5,3.28 -0.55,5.74 1.09,2.6 3.01,4.65 5.47,6.15 0,2.46 -0.27,5.06 -0.55,7.79 -0.96,6.56 -2.46,14.22 -4.1,19.14 0,0.01 0,0.02 -0.01,0.03 -2.73,8.19 -6.15,14.87 -10.11,18.97 -3.01,3.28 -6.43,4.92 -10.12,4.38 -2.87,-0.68 -4.65,-4.92 -5.47,-10.66 -0.27,-1.78 -0.55,-3.55 -0.55,-5.61 6.56,-2.6 11.21,-8.89 13.67,-15.18 1.09,-2.87 1.64,-5.88 1.78,-8.48 0,-2.87 -0.41,-5.33 -1.64,-7.11 -1.09,-1.78 -2.73,-2.87 -4.92,-3.01 -6.56,-0.55 -11.76,3.69 -15.18,9.98 -2.05,3.55 -3.28,7.79 -3.96,12.17 -0.68,4.37 -0.82,8.89 0,13.13 1.5,8.48 6.02,15.72 14.22,17.91 5.47,1.5 10.53,-0.55 14.77,-5.06 4.31,-4.45 7.83,-11.43 10.68,-19.88 0.1,-0.15 0.19,-0.31 0.26,-0.5 1.64,-5.2 3.28,-12.99 4.1,-19.82 0.27,-2.19 0.55,-4.38 0.68,-6.43 3.01,1.23 6.29,2.05 9.57,2.6 1.09,0.27 1.37,0.96 1.09,2.19 -1.91,7.11 -5.33,20.1 -5.2,30.49 0.14,9.43 3.14,16.82 12.31,16.82 0.41,0 1.09,0 1.64,-0.14 5.12,-0.67 8.85,-6.5 11.6,-12.83 -0.31,9.31 0.17,18.21 1.52,25.95 2.32,13.94 7.66,24.47 16,27.62 1.91,0.82 3.83,0.68 5.47,-0.27 1.78,-1.09 3.14,-3.01 3.97,-5.88 0.82,-2.46 1.37,-5.61 1.37,-9.16 0.14,-10.8 -3.69,-25.29 -12.72,-35.68 6.56,1.23 11.9,0.41 16.13,-1.78 3.28,-1.72 5.82,-4.2 7.77,-7.1 0.05,0.32 0.1,0.64 0.16,0.95 1.5,8.48 6.01,15.72 14.22,17.91 5.47,1.5 10.53,-0.55 14.77,-5.06 3.03,-3.12 5.66,-7.51 7.94,-12.76 1.52,8.44 6.03,15.64 14.2,17.82 5.61,1.5 10.94,-0.55 15.59,-5.2 3.43,-3.33 6.49,-8.09 9.01,-13.82 0.44,2.54 0.98,4.93 1.65,7.12 2.05,6.56 5.47,11.07 10.53,12.03 0.82,0.14 1.64,0.27 2.46,0.27 3.55,0 6.7,-4.38 9.43,-9.98 1.23,-2.6 2.32,-5.33 3.28,-7.93 1.64,10.12 5.74,17.5 13.4,17.91 4.65,0.55 8.61,-3.96 11.76,-9.71 1.5,-2.78 2.8,-5.85 3.91,-8.76 0.47,2.8 1.12,5.44 1.97,7.8 2.19,5.61 5.47,9.71 10.39,10.8 2.73,0.68 5.06,0.55 7.38,-1.09 3.42,-2.73 5.88,-8.48 8.2,-15.04 -0.27,7.93 -0.55,16.13 -1.37,23.52 -9.16,-0.27 -17.36,1.37 -24.61,8.61 -5.47,5.47 -7.11,11.62 -5.88,16.41 0.41,2.19 1.37,3.97 2.73,5.61 1.5,1.37 3.28,2.6 5.33,3.14 3.42,0.96 7.52,0.68 11.89,-1.64 1.91,-0.96 3.96,-2.19 5.88,-3.97 6.84,-6.01 11.07,-14.49 13.67,-23.79 l 4.51,0.41 c 14.22,1.78 30.21,3.69 47.99,-4.65 5.47,-2.6 10.8,-6.02 16,-9.84 10.94,8.48 25.53,12.07 37.45,13.26 8.28,0.83 29.75,0.71 46.23,-13.51 0.12,-0.1 0.21,-0.2 0.32,-0.31 -0.12,-1.1 -0.22,-2.38 -0.31,-3.8 -0.33,-5.32 -0.46,-12.72 -0.24,-20.8 2.32,-0.14 4.51,-0.55 6.7,-0.96 l 0.14,0.14 c 0.68,-0.27 1.37,-0.41 1.91,-0.68 10.25,-3.14 18.05,-10.53 22.29,-19.14 2.19,-4.24 3.42,-8.75 3.69,-13.12 0.18,-4.48 -0.37,-8.86 -2.14,-12.82 z m -238.35,28.3 c 1.23,-9.98 3.14,-19.69 5.6,-27.21 2.32,-7.52 5.06,-12.44 7.38,-12.58 0.41,0 0.55,0.14 0.82,0.27 1.78,1.23 2.05,4.37 1.37,8.48 -0.82,4.65 -2.87,10.25 -5.33,15.86 -3.28,7.38 -7.25,14.77 -10.39,19.69 0.14,-1.5 0.27,-3.01 0.55,-4.51 z m -103.49,16.95 c 0.55,-4.92 1.5,-9.84 2.87,-13.81 1.5,-4.38 3.56,-7.52 5.61,-7.52 0.96,0.14 1.64,0.55 2.19,1.37 0.68,1.23 0.96,3.01 0.96,5.06 -0.14,2.32 -0.68,4.78 -1.64,7.38 -1.91,5.06 -5.33,9.98 -10.25,12.58 -0.02,-1.78 0.12,-3.42 0.26,-5.06 z m -36.36,-9.98 c 0.55,-3.42 1.09,-6.43 1.78,-9.16 2.87,-13.26 5.88,-20.64 8.61,-24.47 1.64,-2.46 3.96,-4.65 6.29,-3.01 l 0.68,0.55 c 2.19,2.19 1.91,6.83 0,12.3 -1.91,5.88 -5.74,12.85 -10.25,19.41 -2.46,3.55 -5.33,7.11 -8.07,10.25 z m -79.02,9.98 c 0.55,-4.92 1.5,-9.84 2.87,-13.81 1.5,-4.38 3.55,-7.52 5.61,-7.52 0.96,0.14 1.64,0.55 2.19,1.37 0.68,1.23 0.96,3.01 0.96,5.06 -0.14,2.32 -0.68,4.78 -1.64,7.38 -1.91,5.06 -5.33,9.98 -10.25,12.58 -0.02,-1.78 0.12,-3.42 0.26,-5.06 z m 89.95,54.01 c -0.14,3.14 -0.41,5.88 -1.09,8.07 -0.68,1.91 -1.5,3.28 -2.6,3.96 -0.41,0.27 -0.96,0.41 -1.64,0.14 -0.27,0 -0.41,-0.14 -0.68,-0.14 l -0.55,-0.27 c -3.69,-2.19 -6.15,-12.58 -6.97,-25.98 -0.55,-6.56 -0.55,-13.81 -0.27,-21.19 9.84,9.7 13.94,24.61 13.8,35.41 z m 161.59,10.93 c -2.6,1.64 -6.43,2.46 -9.43,1.64 -1.37,-0.41 -2.6,-1.23 -3.55,-2.19 -1.09,-1.09 -1.64,-2.46 -2.05,-3.83 -0.82,-3.83 0.41,-8.61 5.06,-13.13 6.15,-6.29 13.4,-7.79 21.6,-7.66 -1.65,11.78 -4.93,21.35 -11.63,25.17 z m 63.16,-92.28 c -0.96,-5.61 -1.09,-10.66 -0.41,-14.49 0.68,-3.69 2.05,-6.43 4.24,-7.66 2.05,-1.23 5.06,-1.23 6.97,0 3.28,2.05 6.43,4.92 8.89,8.34 3.42,4.51 5.88,9.98 6.29,15.59 0,1.91 0.41,3.69 1.09,4.79 0.27,0.68 0.55,1.23 0.96,1.64 0.68,0.55 1.37,0.82 2.19,0.82 0.82,-0.14 1.37,-0.55 1.91,-1.5 v -0.27 c 2.73,-8.75 10.12,-19.69 17.77,-25.98 2.19,-1.78 4.37,-3.15 6.56,-3.97 1.91,-0.82 3.69,-0.96 5.2,-0.55 0.96,0.27 1.91,0.96 2.73,1.91 0.55,0.55 0.96,1.37 1.37,2.05 2.05,4.38 1.5,10.67 -0.82,17.77 -2.46,7.38 -6.97,15.59 -12.71,23.79 -7.11,9.71 -16,19.41 -25.84,27.07 -14.08,-12.16 -23.65,-32.94 -26.39,-49.35 z"
   id="path4"
   inkscape:connector-curvature="0" />
		<path
   d="m 829.63,390.17 c -1.64,4.65 -4.79,7.38 -8.61,9.16 -1.91,-6.02 -7.11,-10.94 -12.17,-15.59 -3.83,-3.55 -7.52,-6.97 -9.02,-10.39 -0.55,-1.37 -0.96,-2.87 -1.09,-4.24 -0.41,-3.42 0.68,-7.79 4.79,-7.66 1.5,0 2.87,0.41 4.1,0.96 1.09,0.55 2.19,1.37 3.01,2.46 0.55,1.09 0.68,2.19 0.68,3.14 -0.14,1.23 -0.82,2.32 -1.5,3.14 -1.37,1.23 -1.5,2.73 -1.09,3.96 0.41,0.96 1.09,1.64 1.78,1.91 0.96,0.41 2.05,0.41 3.01,-0.27 1.09,-0.68 2.19,-2.32 2.32,-5.19 0.41,-5.61 -1.78,-9.98 -6.7,-12.31 -1.64,-0.82 -3.55,-1.37 -5.47,-1.37 -1.91,-0.14 -3.83,0.27 -5.61,0.96 -4.65,1.64 -8.48,5.88 -8.61,12.31 -0.14,4.37 1.09,8.07 3.14,11.21 -0.27,1.37 -0.68,2.46 -0.96,3.55 -0.27,1.37 -0.82,3.14 -1.23,4.24 0,0.01 0,0.01 0,0.02 -2.05,6.42 -4.64,12.7 -7.38,17.2 -1.78,3.01 -3.69,5.06 -5.33,5.06 -0.82,-0.27 -1.5,-3.14 -1.78,-7.38 -0.41,-4.79 -0.27,-11.21 0.41,-17.5 0.55,-5.47 1.5,-11.07 2.73,-15.59 0.68,-2.19 -0.68,-4.24 -2.46,-5.61 -0.82,-0.41 -1.5,-0.82 -2.32,-0.96 -0.82,-0.27 -1.78,-0.27 -2.6,-0.14 -1.78,0.27 -3.28,1.5 -3.83,3.69 -1.37,5.33 -2.19,10.94 -2.46,16.41 -0.14,1.64 -0.14,3.28 -0.14,4.79 l -0.68,2.6 c -3.01,9.43 -6.15,19.41 -10.39,21.05 -2.19,-0.55 -3.69,-3.69 -4.51,-8.34 -1.09,-5.2 -1.23,-11.89 -0.82,-18.59 0.27,-6.01 1.09,-12.03 2.19,-16.82 0.55,-2.46 -0.96,-4.51 -3.14,-5.61 -0.68,-0.41 -1.5,-0.82 -2.32,-0.96 -0.68,-0.14 -1.64,-0.27 -2.46,-0.14 -2.32,0.41 -3.69,1.64 -4.1,3.96 -1.5,6.02 -2.32,13.13 -2.32,19.96 0,1.03 0.03,2.06 0.07,3.08 -1.37,4.1 -3.53,10.26 -6.36,15.24 -2.6,4.78 -5.61,8.48 -8.61,7.93 -2.19,-0.55 -3.42,-6.29 -3.83,-14.36 -0.27,-4.79 -0.14,-10.39 0.27,-16.27 3.01,-3.69 9.43,-14.36 14.36,-25.16 2.6,-5.88 4.65,-11.89 5.61,-16.82 0.82,-5.47 0.27,-9.84 -3.01,-12.03 -0.68,-0.41 -1.37,-0.68 -2.05,-0.96 -6.43,-1.64 -12.3,4.92 -16.68,15.31 -3.14,7.38 -5.74,16.68 -7.25,26.25 -1.37,9.43 -1.91,19.14 -0.96,27.21 1.23,11.48 5.47,19.82 13.54,20.37 4.65,0.55 8.61,-3.96 11.76,-9.71 1.52,-2.82 2.88,-5.94 4.03,-8.91 0.47,2.87 1.13,5.56 1.98,7.95 2.19,5.61 5.61,9.71 10.53,10.8 0.82,0.27 1.91,0.41 2.87,0.41 6.29,-0.14 9.98,-8.61 13.12,-18.18 0.27,1.91 0.68,3.69 1.23,5.33 1.64,5.74 4.51,9.84 8.34,10.94 0.55,0.14 1.23,0.27 1.78,0.27 3.14,0.14 6.02,-2.6 8.61,-6.84 3.01,-4.65 5.61,-11.35 7.79,-17.91 0,0 0,-0.01 0,-0.01 l 1.36,-4.36 0.14,-0.55 c 1.91,2.32 4.1,4.51 6.29,6.7 3.28,3.01 6.29,6.02 7.93,9.16 l -1.91,0.27 c -3.56,0.41 -6.97,0.96 -10.25,1.91 -5.61,1.64 -8.61,5.19 -9.57,9.02 -0.27,1.64 -0.27,3.28 0.14,4.79 0.41,1.64 1.09,3.14 2.19,4.37 2.05,2.19 5.06,3.69 8.89,3.83 2.73,0 5.06,-0.55 7.38,-1.64 4.92,-1.91 8.61,-5.06 11.21,-8.48 3.14,-4.24 4.37,-9.16 4.1,-13.4 5.06,-1.91 9.16,-5.2 11.35,-11.62 0.78,-2.24 -2.5,-3.33 -3.45,-1.01 z M 719.3,371.3 c 1.37,-9.84 3.28,-19.55 5.74,-27.07 2.32,-7.52 4.92,-12.58 7.38,-12.71 l 0.82,0.41 c 1.78,1.23 2.05,4.37 1.37,8.48 -0.82,4.51 -2.87,10.25 -5.33,15.86 -3.28,7.38 -7.38,14.63 -10.39,19.55 z m 89.95,45.94 c -1.09,1.91 -2.6,3.28 -4.37,4.24 -1.78,0.96 -3.69,1.37 -5.74,1.37 -2.87,0 -4.92,-1.09 -6.29,-2.6 -0.68,-0.82 -1.23,-1.78 -1.5,-2.87 -0.27,-0.96 -0.27,-2.05 0,-3.14 0.68,-2.73 2.87,-5.2 6.97,-6.43 3.01,-0.82 6.43,-1.37 9.84,-1.78 l 2.46,-0.41 v 0.14 c 0.96,4.78 0.27,8.61 -1.37,11.48 z"
   id="path6"
   inkscape:connector-curvature="0" />
	</g>
	<g
   id="g22">
		<path
   d="m 564.43,455.36 c 1.79,0.42 3.13,1.35 4.02,2.8 0.89,1.45 1.34,3.06 1.34,4.81 0,2.84 -0.93,5.16 -2.8,6.97 -1.87,1.8 -4.38,2.7 -7.54,2.7 h -11.87 v -32.17 h 9.62 c 3.51,0 6.23,0.72 8.16,2.15 1.93,1.44 2.9,3.53 2.9,6.27 0,1.56 -0.37,2.93 -1.1,4.09 -0.74,1.17 -1.65,1.96 -2.73,2.38 z m -12.26,-10.3 v 8.04 h 5.75 c 3.83,0 5.75,-1.34 5.75,-4.02 0,-2.68 -1.92,-4.02 -5.75,-4.02 z m 6.51,22.98 c 2.04,0 3.64,-0.43 4.79,-1.29 1.15,-0.86 1.72,-2.15 1.72,-3.88 0,-1.72 -0.57,-3.02 -1.72,-3.88 -1.15,-0.86 -2.75,-1.29 -4.79,-1.29 h -6.51 v 10.34 z"
   id="path10"
   inkscape:connector-curvature="0" />
		<path
   d="m 622.64,472.64 h -5.36 l -8.03,-11.11 h -4.99 v 11.11 h -4.6 v -32.17 h 9.96 c 4.05,0 7.11,0.93 9.17,2.78 2.06,1.85 3.09,4.36 3.09,7.52 0,2.52 -0.66,4.72 -1.99,6.58 -1.32,1.87 -3.17,3.12 -5.53,3.76 z m -18.38,-27.58 v 11.87 h 6.85 c 1.82,0 3.3,-0.49 4.45,-1.46 1.15,-0.97 1.72,-2.45 1.72,-4.43 0,-2.01 -0.57,-3.51 -1.7,-4.5 -1.13,-0.99 -2.59,-1.48 -4.38,-1.48 z"
   id="path12"
   inkscape:connector-curvature="0" />
		<path
   d="m 657.12,472.64 h -4.6 v -32.17 h 4.6 z"
   id="path14"
   inkscape:connector-curvature="0" />
		<path
   d="m 698.53,440.47 c 5.17,0 9.2,1.52 12.09,4.55 2.89,3.03 4.33,6.88 4.33,11.54 0,4.63 -1.47,8.47 -4.4,11.51 -2.94,3.05 -6.94,4.57 -12.02,4.57 h -9.62 v -32.17 z m 1.19,27.57 c 3.1,0 5.64,-1.11 7.64,-3.33 1.99,-2.22 2.99,-4.94 2.99,-8.16 0,-3.22 -1,-5.94 -2.99,-8.16 -2,-2.22 -4.54,-3.33 -7.64,-3.33 h -6.22 v 22.98 z"
   id="path16"
   inkscape:connector-curvature="0" />
		<path
   d="m 766.27,472.64 -3.13,-6.89 h -14.43 l -3.13,6.89 h -4.98 l 15.32,-32.94 15.32,32.94 z M 750.8,461.15 h 10.26 l -5.13,-11.31 z"
   id="path18"
   inkscape:connector-curvature="0" />
		<path
   d="m 804.57,468.04 h 13.02 v 4.6 h -17.62 v -32.17 h 4.6 z"
   id="path20"
   inkscape:connector-curvature="0" />
	</g>
</g>
</svg>